<?xml version="1.0" standalone="no"?><!DOCTYPE svg PUBLIC "-//W3C//DTD SVG 1.1//EN" "http://www.w3.org/Graphics/SVG/1.1/DTD/svg11.dtd"><svg t="1678970549383" class="icon" viewBox="0 0 1024 1024" version="1.1" xmlns="http://www.w3.org/2000/svg" p-id="1057" xmlns:xlink="http://www.w3.org/1999/xlink" width="200" height="200"><path d="M376.888889 270.222222c46.222222 0 87.537778 22.001778 114.929778 56.547556a306.460444 306.460444 0 0 0-137.770667 175.900444 193.806222 193.806222 0 0 0-115.342222-16.554666 162.360889 162.360889 0 0 1-11.150222-59.448889c0-86.4 66.858667-156.444444 149.333333-156.444445z" fill="#7E99FF" p-id="1058"></path><path d="M376.888889 270.222222c43.221333 0 83.754667 17.592889 114.005333 48.284445l3.313778 3.470222-20.821333 19.384889C448.113778 314.197333 413.667556 298.666667 376.888889 298.666667c-74.467556 0-135.111111 63.530667-135.111111 142.222222 0 12.373333 1.493333 24.519111 4.423111 36.209778l1.578667 5.816889-27.278223 8.035555A176.995556 176.995556 0 0 1 213.333333 440.888889c0-94.108444 73.073778-170.666667 163.555556-170.666667z" fill="#2F2F2F" p-id="1059"></path><path d="M647.111111 270.222222C815.985778 270.222222 952.888889 407.125333 952.888889 576c0 161.706667-125.511111 294.087111-284.444445 305.038222V881.777778H270.222222c-109.966222 0-199.111111-92.330667-199.111111-206.222222S160.256 469.333333 270.222222 469.333333c29.952 0 58.353778 6.855111 83.825778 19.114667C391.694222 362.24 508.657778 270.222222 647.111111 270.222222z m0 28.444445a277.447111 277.447111 0 0 0-264.220444 192.796444l-1.564445 5.12-9.543111 31.971556-30.065778-14.478223A164.181333 164.181333 0 0 0 270.222222 497.777778c-94.023111 0-170.666667 79.374222-170.666666 177.777778 0 96.910222 74.339556 175.36 166.4 177.720888L270.222222 853.333333h386.517334l9.756444-0.668444c143.175111-9.870222 255.402667-128 257.905778-271.758222L924.444444 576c0-151.537778-121.543111-274.688-272.455111-277.290667L647.111111 298.666667zM189.724444 352.881778v28.444444H115.057778v-28.444444zM223.388444 189.056l56.888889 56.888889-20.110222 20.110222-56.888889-56.888889zM398.222222 142.222222v85.333334h-28.444444v-85.333334zM574.222222 188.017778l17.777778 22.186666-71.111111 56.888889-17.777778-22.186666z" fill="#2F2F2F" p-id="1060"></path></svg>