<?xml version="1.0" standalone="no"?><!DOCTYPE svg PUBLIC "-//W3C//DTD SVG 1.1//EN" "http://www.w3.org/Graphics/SVG/1.1/DTD/svg11.dtd"><svg t="1678970599563" class="icon" viewBox="0 0 1024 1024" version="1.1" xmlns="http://www.w3.org/2000/svg" p-id="1203" xmlns:xlink="http://www.w3.org/1999/xlink" width="200" height="200"><path d="M362.666667 376.888889m-78.222223 0a78.222222 78.222222 0 1 0 156.444445 0 78.222222 78.222222 0 1 0-156.444445 0Z" fill="#7E99FF" p-id="1204"></path><path d="M156.444444 749.653333C165.660444 638.648889 186.410667 583.111111 218.723556 583.111111c48.440889 0 32.355556 109.255111 50.218666 128.711111 17.877333 19.441778 72.391111 65.493333 72.391111 98.375111v95.672889c-18.545778-9.244444-33.28-16.696889-44.174222-22.343111-10.922667-5.660444-24.689778-14.904889-41.301333-27.747555l-37.134222-30.634667a2410.140444 2410.140444 0 0 1-35.740445-39.793778c-7.239111-8.334222-16.071111-20.238222-26.538667-35.697778zM680.718222 113.777778c-64.725333 100.551111-72.248889 222.108444-22.599111 364.629333 21.176889 79.644444 81.137778 161.237333 81.137778 205.084445 0 43.861333 49.109333 29.041778 49.109333 0 0-29.013333-28.046222-263.907556 0-323.271112 18.688-39.552 47.815111-65.507556 87.395556-77.852444l-34.702222-43.349333-29.539556-33.464889-36.636444-35.086222-39.04-30.691556L680.718222 113.777778z" fill="#7E99FF" p-id="1205"></path><path d="M512 71.111111c243.484444 0 440.888889 197.404444 440.888889 440.888889 0 243.484444-197.404444 440.888889-440.888889 440.888889C268.515556 952.888889 71.111111 755.484444 71.111111 512 71.111111 268.515556 268.515556 71.111111 512 71.111111z m0 28.444445C284.216889 99.555556 99.555556 284.216889 99.555556 512s184.661333 412.444444 412.444444 412.444444 412.444444-184.661333 412.444444-412.444444S739.783111 99.555556 512 99.555556z" fill="#2F2F2F" p-id="1206"></path></svg>